<svg xmlns="http://www.w3.org/2000/svg" viewBox="0 0 293.64 131.08"><defs><style>.cls-1{fill:#010101;}</style></defs><g id="Livello_2" data-name="Livello 2"><g id="Livello_1-2" data-name="Livello 1"><path class="cls-1" d="M41.85,2a221.86,221.86,0,0,0-.76,39c.13,1.91,3.13,1.93,3,0a221.86,221.86,0,0,1,.76-39c.21-1.92-2.79-1.91-3,0Z"/><path class="cls-1" d="M44.6,3.56l80.3-.22,80.31-.22L250.6,3a1.5,1.5,0,0,0,0-3L170.29.22,90,.43,44.6.56a1.5,1.5,0,0,0,0,3Z"/><path class="cls-1" d="M42.59,42.51q40.75,2.82,81.63,3.38t81.7-1.26q22.85-1.05,45.65-2.9c1.91-.16,1.93-3.16,0-3Q210.86,42.06,170,42.78T88.28,42q-22.86-.88-45.69-2.46c-1.93-.14-1.92,2.86,0,3Z"/><path class="cls-1" d="M249.4,1.52c1,12.86,2.17,25.84.67,38.71-.22,1.91,2.78,1.9,3,0,1.5-12.87.33-25.85-.67-38.71-.14-1.91-3.15-1.93-3,0Z"/><path class="cls-1" d="M41.6,14.46,5,11.87A1.52,1.52,0,0,0,4,14.43L22.05,34.05c1.31,1.43,3.43-.7,2.12-2.12L6.08,12.31,5,14.87,41.6,17.46c1.93.14,1.92-2.86,0-3Z"/><path class="cls-1" d="M22.05,31.93C14.69,38.08,7.8,44.76.44,50.91a1.52,1.52,0,0,0,.67,2.51C8.59,55.05,16.37,55.56,24,56.06c9,.59,18,.92,27,.9,3.86,0,7.74-.07,11.59-.38,1.91-.15,1.92-3.16,0-3a206.92,206.92,0,0,1-22.69.22c-9-.25-18-.73-27-1.66a98.07,98.07,0,0,1-11-1.62L2.57,53c7.35-6.15,14.24-12.83,21.6-19,1.49-1.24-.65-3.35-2.12-2.12Z"/><path class="cls-1" d="M41.53,42.07a79.4,79.4,0,0,0,10.1,7.79,51.81,51.81,0,0,0,10.69,5.71c1.81.66,2.6-2.24.8-2.9a48.88,48.88,0,0,1-10-5.4A74.7,74.7,0,0,1,43.65,40c-1.42-1.31-3.54.8-2.12,2.12Z"/><path class="cls-1" d="M64.1,54.76q.36-5.76.71-11.51a1.5,1.5,0,0,0-3,0Q61.45,49,61.1,54.76a1.5,1.5,0,1,0,3,0Z"/><path class="cls-1" d="M41.85,76.08a221.88,221.88,0,0,0-.76,39c.13,1.92,3.13,1.93,3,0a221.88,221.88,0,0,1,.76-39c.21-1.92-2.79-1.9-3,0Z"/><path class="cls-1" d="M44.6,77.63l80.3-.22,80.31-.21,45.39-.13a1.5,1.5,0,0,0,0-3l-80.31.22L90,74.51l-45.39.12a1.5,1.5,0,0,0,0,3Z"/><path class="cls-1" d="M42.59,116.58q40.75,2.83,81.63,3.39t81.7-1.27q22.85-1,45.65-2.9c1.91-.15,1.93-3.15,0-3q-40.71,3.33-81.58,4T88.28,116q-22.86-.87-45.69-2.46c-1.93-.13-1.92,2.87,0,3Z"/><path class="cls-1" d="M249.4,75.6c1,12.85,2.17,25.83.67,38.7-.22,1.92,2.78,1.9,3,0,1.5-12.87.33-25.85-.67-38.7-.14-1.92-3.15-1.93-3,0Z"/><path class="cls-1" d="M252,91.54l36.58-2.6-1.06-2.56L269.47,106c-1.31,1.41.81,3.54,2.12,2.12L289.68,88.5a1.52,1.52,0,0,0-1.06-2.56L252,88.54c-1.91.13-1.93,3.13,0,3Z"/><path class="cls-1" d="M269.47,108.13c7.36,6.14,14.25,12.83,21.61,19l.66-2.5c-7.33,1.6-15,2.07-22.43,2.56-9,.58-18,.9-27,.87-3.76,0-7.53-.07-11.29-.37-1.92-.16-1.91,2.84,0,3a210.45,210.45,0,0,0,23,.21c9-.26,18-.74,26.92-1.68a107,107,0,0,0,11.56-1.7,1.51,1.51,0,0,0,.66-2.51c-7.36-6.14-14.25-12.83-21.61-19-1.47-1.23-3.61.88-2.12,2.12Z"/><path class="cls-1" d="M250,114a74.07,74.07,0,0,1-9.49,7.33,49.29,49.29,0,0,1-10,5.4c-1.8.66-1,3.56.79,2.89a52.25,52.25,0,0,0,10.69-5.7,77.89,77.89,0,0,0,10.1-7.8c1.43-1.31-.7-3.43-2.12-2.12Z"/><path class="cls-1" d="M232.54,128.83q-.36-5.75-.71-11.5a1.5,1.5,0,0,0-3,0q.36,5.74.71,11.5a1.5,1.5,0,0,0,3,0Z"/><path class="cls-1" d="M44,76.9c25-7.07,49.39-16,74.12-23.88,7.07-2.26,14.17-4.42,21.32-6.43a1.51,1.51,0,0,0-.8-2.9C114.25,50.58,90.51,59.36,66.4,67q-11.55,3.68-23.23,7A1.5,1.5,0,0,0,44,76.9Z"/><path class="cls-1" d="M250.7,39.1l-10.63,3.53-25.51,8.48L183.7,61.37,157,70.23c-4.31,1.43-8.67,2.76-12.94,4.3l-.17.06c-1.83.61-1,3.5.79,2.89L155.34,74l25.51-8.48,30.86-10.26,26.67-8.86c4.31-1.43,8.66-2.76,12.94-4.3l.17-.06c1.83-.6,1-3.5-.79-2.89Z"/><path class="cls-1" d="M27.3,19.58c-1.52-.1-3.06-.43-4.56-.65l-4.44-.64L9.42,17c-.62-.09-.89.85-.26.94l9,1.3,4.44.64c1.51.21,3.08.34,4.56.67a.5.5,0,1,0,.14-1Z"/><path class="cls-1" d="M30.3,23.86c-2.88-.36-5.75-1-8.62-1.47S16.1,21.34,13.29,21c-.54-.07-.66.84-.13,1,2.81.59,5.67,1,8.5,1.46s5.71.84,8.51,1.45a.5.5,0,1,0,.13-1Z"/><path class="cls-1" d="M33.36,29.51a16.42,16.42,0,0,1-1.95-.3L29.59,29c-1.14-.16-2.28-.31-3.43-.44s-2.37-.26-3.55-.36a35,35,0,0,0-3.69-.28l.47.36-.21.23c.57.23.86-.83.12-.91a.77.77,0,0,0-.86.81c0,.19.13.43.35.46,1.18.17,2.39.19,3.57.3s2.37.22,3.56.35,2.44.29,3.66.45l1.7.25a12.58,12.58,0,0,1,1.95.31c.67.22.88-1,.13-1Z"/><path class="cls-1" d="M34.84,37.4a9.34,9.34,0,0,1-1.83,0l-2-.06c-1.36,0-2.71-.08-4.07-.12-2.67-.07-5.34-.11-8-.22-.63,0-.63,1,0,1,2.63,0,5.25.14,7.88.21l3.94.11,2,0a11.08,11.08,0,0,1,2.08.06.49.49,0,1,0,0-1Z"/><path class="cls-1" d="M27.33,42.78a10.22,10.22,0,0,1-2-.11l-1.75-.11L20,42.34l-7.34-.45c-.64,0-.64,1,0,1l7.22.43,3.48.21c.59,0,1.17.08,1.75.1a12.4,12.4,0,0,1,2.11.13c.75.2.81-1.06.13-1Z"/><path class="cls-1" d="M19.66,47.48a7.27,7.27,0,0,1-1.54-.08l-1.44-.09-2.87-.21L8,46.71c-.64-.05-.64.95,0,1l5.74.37c.91.06,1.83.13,2.75.18l1.38.09a8.79,8.79,0,0,1,1.7.12c.75.2.81-1.07.13-1Z"/><path class="cls-1" d="M54.82,9.06c-2,0-4,0-6,0-1,0-2,.07-3,.16S43.9,9.34,43,9.5c-.53.09-.41,1,.13.93,1,0,2-.2,3-.26S48,10.06,48.94,10a52.43,52.43,0,0,1,5.88,0c.63,0,.65-1,0-1Z"/><path class="cls-1" d="M48.3,13.83s-.18,0-.25,0l-.44,0h-.75c-.53,0-1,0-1.57-.07a20.17,20.17,0,0,1-3.1-.47c-.62-.14-.89.81-.27,1a23.66,23.66,0,0,0,3.24.48c.54,0,1.09.08,1.63.08h.76l.38,0a1.62,1.62,0,0,1,.49,0A.49.49,0,0,0,49,14.2a.5.5,0,0,0-.74-.37Z"/><path class="cls-1" d="M52.56,18.47a7.38,7.38,0,0,1-1.24-.08c-.39,0-.77-.05-1.15-.08l-2.39-.18L45.48,18l-1.14-.09a11,11,0,0,1-1.41-.08c-.71-.15-.8,1-.12.94a10.38,10.38,0,0,1,1.24.11l1.15.08,2.39.18c.76,0,1.53.12,2.29.16l1.15.08a8.17,8.17,0,0,1,1.4.1c.74.2.82-1.05.13-1Z"/><path class="cls-1" d="M46.93,22.48s0,0-.06,0h-.13l-.23,0-.47,0-1-.06-.94-.06-.47,0h-.24a1.12,1.12,0,0,0-.27,0l.22.06-.06,0a.48.48,0,1,0-.12.88l.08,0H43a2.13,2.13,0,0,0,.27.07l.28,0,.47,0,1,.06.94.05c.16,0,.31,0,.47,0a2.75,2.75,0,0,1,.5,0,.49.49,0,1,0,0-.95Z"/><path class="cls-1" d="M51.06,28.41a7.75,7.75,0,0,1-1.18,0l-1.18,0-2.27-.07-4.62-.13a.5.5,0,0,0,0,1l4.53.12,2.18.05,1.09,0a9.7,9.7,0,0,1,1.32,0c.76.14.79-1.06.13-1Z"/><path class="cls-1" d="M47.56,33.69l-.08.05.23-.06a5.63,5.63,0,0,0-.71,0h-.68c-.44,0-.88,0-1.33,0s-.86-.07-1.29-.14a4.56,4.56,0,0,0-1.41-.16l.35,0-.08,0a.49.49,0,1,0-.25.91h.1l-.23-.06a1.8,1.8,0,0,0,.73.2l.63.1c.48.07,1,.12,1.45.15a12.91,12.91,0,0,0,1.39,0,6.93,6.93,0,0,0,1.44-.1l-.34,0,.08,0a.5.5,0,1,0,0-.86Z"/><path class="cls-1" d="M244.56,8.3c.86-.11,1.75-.09,2.62-.14l1.29-.05.62,0c.1,0,.21-.05.32-.06s.26,0,.4,0c.62,0,.62-1,0-1-.13,0-.25,0-.37.06a1.51,1.51,0,0,1-.3,0c-.22,0-.45,0-.67,0l-1.29.07c-.87,0-1.75.13-2.62.11-.66,0-.62,1.07,0,1Z"/><path class="cls-1" d="M234.94,12.74a11.12,11.12,0,0,1,2.08,0h5.66c2.54,0,5.09-.09,7.62,0a.49.49,0,0,0,0-1c-2.53.1-5.09,0-7.62,0H237a10.33,10.33,0,0,1-2.08,0c-.8-.17-.81,1.14,0,1Z"/><path class="cls-1" d="M242.19,17a3.81,3.81,0,0,1,1.12,0l1,0,2.08-.05,4.17-.12c.62,0,.62-1,0-1l-4.17.12-2,.07-1,0-.58,0a2.57,2.57,0,0,1-.62,0c-.83-.24-.77,1.23,0,1Z"/><path class="cls-1" d="M242.05,23.1c1.45-.05,2.93.12,4.38.2s2.93.09,4.37.25c.61.07.64-1,0-1-1.42,0-2.86-.12-4.29-.2s-2.91,0-4.33-.25c-.73-.1-.83,1-.13,1Z"/><path class="cls-1" d="M236.8,30.26c1.16-.08,2.34,0,3.5,0h3.25c2.25,0,4.51,0,6.75,0a.49.49,0,0,0,0-1c-2.24,0-4.5,0-6.75,0H240.3c-1.16,0-2.34.07-3.5,0-.63-.05-.63,1,0,1Z"/><path class="cls-1" d="M242.05,81.58l3.68.16,1.77.07a15.5,15.5,0,0,1,1.93.11c.72.12.79-1,.13-.94a15.41,15.41,0,0,1-1.92-.08l-1.84-.1-3.75-.21c-.64,0-.64,1,0,1Z"/><path class="cls-1" d="M233.94,86.59a11.09,11.09,0,0,1,2.08,0h2l3.94,0c2.61,0,5.26.07,7.87-.08a.47.47,0,0,0,0-.94c-2.65-.1-5.34,0-8,.06-1.31,0-2.62,0-3.93,0-.66,0-1.32,0-2,0a10.7,10.7,0,0,1-2,0,.49.49,0,1,0,0,1Z"/><path class="cls-1" d="M239.69,92.77a17.46,17.46,0,0,1,2.71-.16l2.63-.14,2.53-.13c.91,0,1.83-.15,2.74-.14.64,0,.6-1,0-1-.9.12-1.83.09-2.74.15s-1.75.1-2.63.14l-2.63.15a19.44,19.44,0,0,1-2.74.11c-.68-.06-.63,1.13.13,1Z"/><path class="cls-1" d="M247.44,97.74a1,1,0,0,1,.38,0,.92.92,0,0,0,.49,0l-.32,0a.59.59,0,0,0,.34.1s.23,0,.16,0l.2,0a.5.5,0,0,0,.41-.08l-.22.06H249l-.22-.06a.61.61,0,0,0,.64,0H249a1.36,1.36,0,0,0,.28.11,1.07,1.07,0,0,0,.32,0h-.23a.61.61,0,0,0,.54,0l-.34,0a1.1,1.1,0,0,0,.26.06,1.11,1.11,0,0,0,.25,0h-.24a.69.69,0,0,0,.56,0l-.23.07h.2c.14,0,.17,0,.11,0h.16c.15,0-.06,0,.08,0a.49.49,0,1,0,0-.94s-.08,0,0,0h-.23s0,0,0,0a.29.29,0,0,0-.13,0l-.14,0,.23.06a.73.73,0,0,0-.56,0H250a1.11,1.11,0,0,0-.25,0,1.19,1.19,0,0,0-.26,0l.34,0a.64.64,0,0,0-.54,0h.23a1.08,1.08,0,0,0-.32,0,.94.94,0,0,0-.28.1h.42a.64.64,0,0,0-.64,0l.22-.06h-.07l.22.06a.59.59,0,0,0-.41-.08,1.42,1.42,0,0,1-.2,0c.09,0-.2,0-.16,0a.52.52,0,0,0-.34.1l.32,0a.91.91,0,0,0-.49,0,.83.83,0,0,1-.38,0,.5.5,0,1,0,0,1Z"/><path class="cls-1" d="M239.81,103.8c1.85-.15,3.76-.07,5.62-.1s3.75-.07,5.63-.06c.63,0,.63-1,0-1-1.88.07-3.75.07-5.63.1s-3.76.17-5.62.06c-.65,0-.64,1,0,1Z"/><path class="cls-1" d="M244.43,109.17c1.17-.19,2.38-.26,3.57-.38s2.37-.17,3.55-.3c.61-.07.63-1,0-1-1.21.1-2.41.26-3.62.37s-2.42.28-3.63.31a.49.49,0,1,0,.13,1Z"/><path class="cls-1" d="M43.31,81.78c3.75,0,7.52.25,11.26.5s7.48.69,11.22,1.09c.52.06.65-.85.12-.93-3.71-.52-7.47-.82-11.22-1.11S47.1,81,43.31,80.79c-.64,0-.64,1,0,1Z"/><path class="cls-1" d="M43.3,88.26c2.67-.06,5.34-.11,8,0a.49.49,0,0,0,0-1c-2.66.09-5.33,0-8,0a.5.5,0,0,0,0,1Z"/><path class="cls-1" d="M43.3,93.54c.86,0,1.72.2,2.57.3l2.57.32,2.47.3a19.47,19.47,0,0,1,2.76.36c.66.18.8-.93.12-.91a18.6,18.6,0,0,1-2.57-.32l-2.57-.33-2.47-.32c-.91-.11-1.85-.17-2.75-.37a.49.49,0,1,0-.13,1Z"/><path class="cls-1" d="M42.44,101c.19,0,.38,0,.58,0h-.25a13.36,13.36,0,0,0,1.42.1l1.35,0c.92,0,1.85.08,2.77.13.62,0,.62-1,0-1-1,0-2-.06-2.94-.11-.47,0-.95-.05-1.42-.05l-.7,0a3.64,3.64,0,0,1-.81-.05c-.76-.2-.85,1.11,0,1Z"/><path class="cls-1" d="M43.3,108.28a28.19,28.19,0,0,1,3.44.13l3.56.16c2.33.11,4.67.2,7,.3.63,0,.63-1,0-1l-6.88-.29L47,107.46a34.88,34.88,0,0,1-3.55-.15c-.75-.12-.82,1-.14,1Z"/><path class="cls-1" d="M276.6,94.54l.09,0-.23.06a1.7,1.7,0,0,0,.77-.21l-.23.06a2.06,2.06,0,0,0,.77-.18l-.23.06a18.12,18.12,0,0,1,2.32-.27c.37,0,.74,0,1.11,0l.6,0a2.42,2.42,0,0,1,.6.09c.65.24.87-1,.13-1a5.93,5.93,0,0,1-.72-.1l-.66,0c-.47,0-.93,0-1.4,0a12.18,12.18,0,0,0-1.34.14,4.85,4.85,0,0,0-1.41.34l.23-.06a1.12,1.12,0,0,0-.4.07.85.85,0,0,1-.35.11.5.5,0,0,0-.45.69.49.49,0,0,0,.8.16Z"/><path class="cls-1" d="M268.77,97.69a5.47,5.47,0,0,1,1.34,0h1.18c.81,0,1.63,0,2.45,0,1.62,0,3.28-.16,4.9-.08.63,0,.62-1,0-1-1.62.13-3.28.06-4.9.09-.79,0-1.57,0-2.35,0-.4,0-.79,0-1.18,0a5.79,5.79,0,0,1-1.44,0c-.81-.22-.78,1.19,0,1Z"/><path class="cls-1" d="M268.55,101.31l.11-.06-.34,0a9.86,9.86,0,0,0,1.63,0l1.78-.06c.6,0,1.19,0,1.79-.06a15.13,15.13,0,0,1,1.78-.06c.66.07.63-1.09-.13-.95a6.61,6.61,0,0,1-.89,0l-.9,0c-.57,0-1.15.07-1.72.08s-1.15,0-1.7.07a14.89,14.89,0,0,0-1.64.11l.34,0-.11,0a.5.5,0,1,0,0,.86Z"/><path class="cls-1" d="M274.73,112.12l-.12.06.33-.05a11.87,11.87,0,0,0-1.79-.1c-.62,0-1.24,0-1.86-.07s-1.25,0-1.88-.08a16.14,16.14,0,0,1-2-.07c-.75-.13-.8,1-.13,1a11.56,11.56,0,0,1,1.95.06c.64,0,1.31.07,2,0s1.2,0,1.8.07l.9,0a6.91,6.91,0,0,0,1,0l-.33,0,.12.06a.49.49,0,0,0,.74-.42.5.5,0,0,0-.74-.43Z"/><path class="cls-1" d="M279.73,115.69a1.72,1.72,0,0,1-.46,0l-.64.06-1.16,0c-.88,0-1.75,0-2.62,0s-1.7-.12-2.55-.23-1.7-.33-2.55-.43v.94a4.84,4.84,0,0,1,.76,0c.73.16.79-1,.13-.94a4.43,4.43,0,0,1-.89,0c-.55-.06-.61.77-.13.93a16.51,16.51,0,0,0,2.62.46c.83.11,1.67.19,2.51.23s1.68,0,2.52,0c.45,0,.91,0,1.36-.07l.58,0c.19,0,.45-.13.64-.08.89.24.73-1.36-.12-.9Z"/><path class="cls-1" d="M283,119.12c-1.22,0-2.46,0-3.69-.07l-3.81-.08c-2.49-.06-5,0-7.5-.17-.62,0-.63,1,0,1,2.5,0,5,.11,7.5.17l3.69.08c1.27,0,2.55,0,3.81.09.63,0,.65-1,0-1Z"/><path class="cls-1" d="M59.76,75.79c4.83-1.52,9.77-2.77,14.64-4.15s9.68-2.74,14.53-4.09c2.76-.76,5.55-1.48,8.27-2.37a.44.44,0,0,0-.23-.85c-2.46.59-4.9,1.34-7.34,2l-7.32,2.07L67.79,72.51c-2.76.78-5.51,1.63-8.29,2.32-.62.16-.35,1.15.26,1Z"/><path class="cls-1" d="M74.06,76.3c2.9-.76,5.85-1.31,8.75-2s5.71-1.54,8.54-2.41q8.54-2.62,16.8-6c3.07-1.26,6.07-2.6,9-4.12.41-.22,0-.78-.36-.61-5.47,2.35-10.93,4.73-16.53,6.76s-11.06,3.74-16.71,5.22c-1.58.42-3.16.82-4.75,1.19s-3.33.83-5,1.1c-.62.09-.37,1.12.26,1Z"/><path class="cls-1" d="M92.19,76a8.1,8.1,0,0,1,1.68-.49l1.35-.41c1-.28,2-.53,3.06-.85s2-.59,2.94-.84a18.53,18.53,0,0,0,2.92-.88c.5-.22.1-.87-.34-.81a19.62,19.62,0,0,0-3,.82c-1,.3-2,.55-2.94.82S96,74,95,74.23c-.45.14-.91.24-1.36.37a8.25,8.25,0,0,1-1.68.48c-.83,0-.46,1.32.25.92Z"/><path class="cls-1" d="M114.84,71.2l-10.33,3a.48.48,0,0,0,.26.92l10.33-3a.5.5,0,0,0-.26-1Z"/><path class="cls-1" d="M135,66.14a17.72,17.72,0,0,1-2.43,1.1l-2.31,1c-1.58.73-3.17,1.41-4.75,2.12l-4.64,2.07c-1.65.74-3.28,1.58-5,2.22a.49.49,0,1,0,.38.9c1.53-.8,3.17-1.43,4.74-2.13l4.75-2.12c1.54-.69,3.08-1.4,4.63-2.08l2.49-1.11a19,19,0,0,1,2.49-1.1c.7-.2.22-1.29-.38-.91Z"/><path class="cls-1" d="M136.59,71.59c-.08.08-.19.07-.28.11l-.37.17c-.29.14-.59.26-.89.38l-1.72.74c-1.17.5-2.33,1-3.51,1.51a.49.49,0,1,0,.38.89c1.16-.52,2.33-1,3.49-1.52l1.71-.75.89-.38.39-.16c.07,0,.18-.13.26-.14.94-.06.31-1.47-.35-.85Z"/><path class="cls-1" d="M141.56,50.11l5-2.35c.82-.39,1.67-.72,2.49-1.12a28.91,28.91,0,0,1,2.65-1.23c.64-.24.23-1.19-.36-.86a28.92,28.92,0,0,1-2.66,1.21c-.84.36-1.65.79-2.49,1.16l-5.17,2.34c-.58.26-.08,1.12.5.85Z"/><path class="cls-1" d="M154.22,49.44c2.77-1.23,5.53-2.5,8.33-3.68.55-.24.07-1.08-.49-.83-2.76,1.27-5.56,2.44-8.34,3.65-.58.26-.08,1.12.5.86Z"/><path class="cls-1" d="M156.09,53.48l8.5-3.86,4.2-1.88c.69-.31,1.36-.61,2-1,.37-.19.77-.33,1.14-.49a8.74,8.74,0,0,1,1.27-.53c.69-.19.21-1.27-.37-.89a13.76,13.76,0,0,1-2.19,1c-.71.29-1.42.58-2.12.9l-4.31,1.95-8.64,3.86c-.58.26-.08,1.12.5.86Z"/><path class="cls-1" d="M176.57,49.13c1.06-.7,2.18-1.31,3.28-2,.53-.32,1.1-.6,1.62-.94l.81-.48c.13-.07.28-.14.41-.22a3.24,3.24,0,0,1,.47-.28.47.47,0,1,0-.46-.8,4.53,4.53,0,0,1-.48.27,3.87,3.87,0,0,0-.34.21c-.27.16-.54.32-.82.47-.57.3-1.11.66-1.67,1-1.11.63-2.19,1.31-3.32,1.89-.57.29,0,1.21.5.86Z"/><path class="cls-1" d="M185.24,50.15c2.23-1.1,4.58-2,6.87-3s4.64-2.07,7-3a.48.48,0,1,0-.37-.89c-2.25,1.08-4.58,2-6.88,3s-4.64,2.09-7,3a.5.5,0,1,0,.38.91Z"/><path class="cls-1" d="M201.9,49.47l1.33-.86a8.69,8.69,0,0,1,1.27-.52c1-.46,2-1,2.94-1.45,1.92-1,3.87-1.88,5.77-2.88.54-.28.07-1.06-.47-.81-1.9.92-3.77,1.91-5.65,2.86-1,.47-1.9.94-2.83,1.43A11.13,11.13,0,0,1,203,48l-1.46.55c-.7.26-.21,1.28.38.91Z"/><path class="cls-1" d="M214.92,47.83c1.37-.75,2.77-1.46,4.16-2.17s2.81-1.38,4.17-2.16c.53-.29.07-1-.46-.79-1.42.65-2.79,1.42-4.18,2.14s-2.78,1.44-4.19,2.12c-.57.28-.07,1.17.5.86Z"/><path class="cls-1" d="M189.56,53.45c1.38-.9,2.87-1.64,4.3-2.45s2.81-1.57,4.21-2.36l4.2-2.39c.72-.4,1.44-.8,2.15-1.22s1.43-.87,2.16-1.21c.53-.24,0-1.12-.46-.78-.67.45-1.44.84-2.15,1.22s-1.44.8-2.16,1.21l-4.22,2.35-4.2,2.37c-1.44.8-2.85,1.7-4.33,2.41-.57.27,0,1.21.5.85Z"/></g></g></svg>