<?xml version="1.0" encoding="utf-8"?>
<!-- Generator: Adobe Illustrator 25.4.1, SVG Export Plug-In . SVG Version: 6.00 Build 0)  -->
<svg version="1.1" id="Livello_1" xmlns="http://www.w3.org/2000/svg" xmlns:xlink="http://www.w3.org/1999/xlink" x="0px" y="0px"
	 viewBox="0 0 496.6 95.9" style="enable-background:new 0 0 496.6 95.9;" xml:space="preserve">
<style type="text/css">
	.st0{fill:#FFFFFF;stroke:#000000;stroke-miterlimit:10;}
</style>
<g id="Livello_2_00000018920432528460814110000009356372224147900351_">
	<g id="Livello_1-2">
		<path class="st0" d="M425.5,59v2.2c0,3.6-4.6,6.6-11.2,7.5l-8.9,1.3h90.9l-35-20l35-20h-71.2v29C425.1,59,425.5,59,425.5,59z"/>
		<path class="st0" d="M395.5,69.7l17.9-2.4c4.6-0.6,8.1-2.6,8.9-5h-26.8V69.7z"/>
		<path class="st0" d="M34.8,50l-35,20h91l-8.9-1.2c-5.9-0.8-10.3-3.4-11.1-6.5h-0.1v-0.5c0-0.2,0-0.3,0-0.6V59l0,0V30H-0.2L34.8,50
			z"/>
		<path class="st0" d="M82.7,67.2l17.9,2.4v-7.5H73.8C74.6,64.6,78,66.6,82.7,67.2z"/>
		<path class="st0" d="M70.6,61.1c0,0.2,0,0.3,0,0.6V59l0,0V61.1z"/>
		<rect x="73.7" y="20.7" class="st0" width="348.5" height="39.9"/>
	</g>
</g>
</svg>
