<svg xmlns="http://www.w3.org/2000/svg" viewBox="0 0 1104.37 61.5"><defs><style>.cls-1{fill:#fff;stroke:#000;stroke-miterlimit:10;}</style></defs><g id="Livello_2" data-name="Livello 2"><g id="Livello_1-2" data-name="Livello 1"><g id="Livello_2-2" data-name="Livello 2"><g id="Livello_1-2-2" data-name="Livello 1-2"><g id="Livello_2-2-2" data-name="Livello 2-2"><g id="Livello_1-2-2-2" data-name="Livello 1-2-2"><path class="cls-1" d="M944.55,47.5v2.7c0,4.4-10.2,8-24.8,9.1l-19.6,1.5h201l-77.4-24.6,77.4-24.6H943.65V47C943.65,47.5,944.55,47.5,944.55,47.5Z"/><path class="cls-1" d="M878.25,60.6l39.6-2.9c10.2-.7,17.9-3.1,19.7-6.2h-59.3Z"/><path class="cls-1" d="M80.65,36.4,3.25,61h201.2l-19.7-1.6c-13.1-.9-22.8-4.2-24.6-8H160v-4h0V12H3.25Z"/><path class="cls-1" d="M186.55,57.5l39.6,2.9V51.3h-59.3C168.65,54.4,176.15,56.8,186.55,57.5Z"/><path class="cls-1" d="M159.75,49.9V47.2h0Z"/><rect class="cls-1" x="166.65" y="0.5" width="770.6" height="49"/></g></g></g></g></g></g></svg>